<?xml version="1.0" standalone="no"?>
<!DOCTYPE svg PUBLIC "-//W3C//DTD SVG 20010904//EN"
 "http://www.w3.org/TR/2001/REC-SVG-20010904/DTD/svg10.dtd">
<svg version="1.0" xmlns="http://www.w3.org/2000/svg"
 width="24.7pt" height="31.6pt" viewBox="0 0 247.000000 316.000000"
 preserveAspectRatio="xMidYMid meet">

<g transform="translate(0.000000,316.000000) scale(0.100000,-0.100000)"
fill="#000000" stroke="none">
<path d="M194 3142 c-81 -28 -126 -71 -167 -159 l-22 -48 -3 -1324 c-3 -1454
-5 -1394 57 -1485 32 -45 85 -85 140 -104 25 -9 296 -12 1031 -12 1116 0 1048
-4 1136 73 26 23 57 63 70 92 l24 50 0 1067 0 1066 -27 34 c-50 63 -728 739
-755 754 -23 12 -138 14 -730 14 -643 -1 -707 -2 -754 -18z m1368 -409 c3
-273 3 -279 28 -327 31 -61 106 -129 168 -152 39 -15 88 -18 305 -22 l257 -3
-2 -987 -3 -987 -23 -36 c-45 -74 22 -70 -1069 -67 -924 3 -980 4 -1006 21
-16 10 -37 32 -47 50 -19 31 -20 61 -20 1355 0 1468 -4 1371 64 1413 30 18 63
19 688 19 l657 0 3 -277z m418 -88 l265 -266 -220 3 c-212 3 -221 4 -253 26
-63 45 -67 64 -67 294 0 115 2 208 5 208 3 0 124 -119 270 -265z"/>
<path d="M428 2539 c-22 -12 -23 -52 -2 -73 13 -14 66 -16 425 -16 264 0 417
4 430 10 12 7 19 21 19 40 0 19 -7 33 -19 40 -27 14 -829 13 -853 -1z"/>
<path d="M313 1895 c-45 -19 -53 -42 -53 -149 0 -89 -1 -96 -25 -114 -24 -19
-35 -62 -16 -62 5 0 17 -7 25 -16 12 -12 16 -37 16 -103 0 -104 15 -132 80
-149 l40 -10 0 39 c0 33 -3 39 -20 39 -27 0 -31 13 -33 110 -2 71 -5 84 -24
100 l-23 18 23 15 c20 13 22 24 25 111 4 92 5 98 28 106 19 8 24 17 24 45 0
40 -13 44 -67 20z"/>
<path d="M2079 1907 c0 -1 -1 -17 -2 -36 -2 -26 3 -35 19 -41 29 -12 34 -29
34 -125 0 -69 3 -86 17 -94 17 -9 17 -11 1 -28 -13 -14 -18 -41 -20 -108 -3
-83 -5 -90 -27 -102 -19 -9 -25 -20 -25 -45 1 -29 3 -33 25 -30 35 5 69 29 79
58 6 14 10 59 10 100 0 79 11 114 35 114 9 0 15 10 15 25 0 14 -4 25 -9 25 -5
0 -17 7 -25 16 -12 12 -16 37 -16 109 0 83 -3 97 -22 120 -18 20 -85 51 -89
42z"/>
<path d="M1400 1622 c0 -181 3 -192 52 -192 21 0 28 5 28 20 0 11 -7 23 -15
26 -12 5 -15 32 -15 160 l0 154 -25 0 -25 0 0 -168z"/>
<path d="M410 1699 c0 -17 -4 -28 -10 -24 -6 4 -10 -7 -10 -24 0 -18 5 -30 11
-28 8 1 11 -17 10 -58 -2 -62 11 -114 32 -127 7 -4 29 -8 50 -8 33 0 37 3 37
24 0 19 -6 25 -27 28 -27 3 -28 5 -31 70 -3 66 -3 67 25 70 22 2 28 8 28 28 0
21 -4 25 -27 22 -25 -3 -28 0 -28 27 0 28 -3 31 -30 31 -27 0 -30 -3 -30 -31z"/>
<path d="M1750 1700 c0 -18 -5 -30 -13 -30 -8 0 -13 -9 -12 -22 2 -13 8 -22
14 -20 7 1 11 -22 11 -70 0 -101 13 -122 73 -126 26 -2 47 1 47 7 0 25 -14 41
-36 41 -18 0 -24 7 -29 33 -4 18 -5 51 -3 72 3 37 5 40 31 37 23 -3 27 0 27
22 0 20 -6 25 -27 28 -23 2 -28 8 -28 31 1 23 -3 27 -27 27 -24 0 -28 -4 -28
-30z"/>
<path d="M605 1666 c-39 -17 -55 -53 -55 -122 0 -48 4 -60 29 -85 24 -24 38
-29 75 -29 44 0 86 24 86 49 0 14 -31 22 -44 12 -27 -21 -55 -22 -75 -2 -40
40 -28 51 52 51 l74 0 -7 43 c-8 55 -15 66 -56 83 -40 17 -41 17 -79 0z m73
-58 c21 -21 13 -28 -33 -28 -25 0 -45 4 -45 8 0 15 24 32 45 32 12 0 26 -5 33
-12z"/>
<path d="M864 1664 c-19 -10 -30 -12 -32 -5 -2 6 -15 11 -28 11 l-24 0 0 -121
0 -120 27 3 c26 3 26 4 24 75 -3 87 9 115 47 111 27 -3 27 -3 30 -96 l3 -93
27 3 c27 3 27 4 27 83 1 91 6 105 41 105 32 0 44 -32 44 -121 0 -67 1 -69 25
-69 25 0 25 1 25 90 0 98 -16 149 -48 151 -32 2 -57 -3 -76 -17 -17 -11 -22
-11 -35 0 -27 22 -47 25 -77 10z"/>
<path d="M1150 1676 c0 0 -2 -76 -3 -169 l-2 -167 28 0 c26 0 27 1 27 57 0 44
3 54 12 45 14 -14 72 -16 98 -2 36 19 53 130 29 183 -22 47 -100 67 -126 31
-11 -15 -13 -15 -13 -2 0 9 -11 18 -25 20 -14 3 -25 5 -25 4z m136 -81 c29
-45 2 -125 -42 -125 -38 0 -59 83 -34 131 15 27 56 24 76 -6z"/>
<path d="M1553 1670 c-21 -9 -43 -39 -43 -59 0 -6 11 -11 25 -11 14 0 25 5 25
10 0 14 54 12 68 -2 22 -22 12 -33 -34 -35 -79 -3 -118 -64 -78 -121 11 -17
25 -22 58 -22 23 0 47 5 54 12 9 9 12 9 12 0 0 -7 11 -12 25 -12 25 0 25 0 25
94 0 84 -3 98 -22 121 -25 28 -79 40 -115 25z m87 -154 c0 -23 -30 -47 -54
-44 -24 3 -34 37 -14 49 22 14 68 11 68 -5z"/>
<path d="M1944 1666 c-31 -14 -64 -73 -64 -116 0 -32 31 -100 51 -110 34 -19
106 -12 129 12 11 12 20 25 20 29 0 16 -32 17 -59 2 -27 -16 -30 -16 -55 0
-14 10 -26 27 -26 38 0 19 5 20 73 18 l72 -2 -4 34 c-5 51 -27 86 -62 98 -39
13 -37 13 -75 -3z m64 -52 c30 -21 19 -34 -29 -34 -42 0 -48 9 -23 34 19 20
24 20 52 0z"/>
<path d="M437 952 c-10 -10 -17 -28 -17 -39 0 -49 -20 -48 813 -48 836 0 817
-1 817 50 0 57 25 55 -821 55 -739 0 -777 -1 -792 -18z"/>
<path d="M437 572 c-20 -22 -22 -53 -5 -70 17 -17 1589 -17 1606 0 18 18 15
53 -6 71 -17 16 -87 17 -799 17 -743 0 -781 -1 -796 -18z"/>
</g>
</svg>
